<?xml version="1.0" encoding="UTF-8" standalone="no"?>
<!DOCTYPE svg PUBLIC "-//W3C//DTD SVG 1.1//EN" "http://www.w3.org/Graphics/SVG/1.1/DTD/svg11.dtd">
<svg width="100%" height="100%" viewBox="0 0 160 180" version="1.1" xmlns="http://www.w3.org/2000/svg" xmlns:xlink="http://www.w3.org/1999/xlink" xml:space="preserve" xmlns:serif="http://www.serif.com/" style="fill-rule:evenodd;clip-rule:evenodd;stroke-linejoin:round;stroke-miterlimit:2;">
    <g transform="matrix(20,0,0,20,-17860,-9440)">
        <path d="M895,472L900,472L900,473L901,473L901,475L900,475L900,476L901,476L901,481L900,481L900,479L899,479L899,481L898,481L898,479L897,479L897,481L896,481L896,478L893,478L893,474L894,474L894,473L895,473L895,472ZM899,477L899,478L900,478L900,477L899,477ZM896,475L896,477L897,477L897,476L898,476L898,475L896,475Z" style="fill:rgb(34,34,37);"/>
    </g>
</svg>
